<svg xmlns="http://www.w3.org/2000/svg" viewBox="0 0 400 300">
  <defs>
    <linearGradient id="loveBg" x1="0" y1="0" x2="1" y2="1">
      <stop offset="0%" stop-color="#FFE4EC"/>
      <stop offset="55%" stop-color="#F7A8C4"/>
      <stop offset="100%" stop-color="#C8577F"/>
    </linearGradient>
    <radialGradient id="roseG" cx="40%" cy="35%" r="70%">
      <stop offset="0%" stop-color="#FFD6E4"/>
      <stop offset="100%" stop-color="#D64876"/>
    </radialGradient>
  </defs>
  <rect width="400" height="300" fill="url(#loveBg)"/>
  <g opacity="0.95">
    <circle cx="90" cy="200" r="30" fill="url(#roseG)"/>
    <circle cx="90" cy="200" r="20" fill="none" stroke="#FFE4EC" stroke-width="1.2" opacity="0.8"/>
    <circle cx="90" cy="200" r="11" fill="none" stroke="#FFE4EC" stroke-width="1.2" opacity="0.8"/>
    <path d="M90 230 v40" stroke="#7a2c47" stroke-width="2" fill="none"/>
    <path d="M90 250 c-14 -2 -20 8 -20 8" stroke="#7a2c47" stroke-width="2" fill="none"/>
  </g>
  <g opacity="0.95">
    <circle cx="320" cy="80" r="26" fill="url(#roseG)"/>
    <circle cx="320" cy="80" r="17" fill="none" stroke="#FFE4EC" stroke-width="1.1" opacity="0.8"/>
    <path d="M320 106 v34" stroke="#7a2c47" stroke-width="2" fill="none"/>
  </g>
  <path d="M200 130c-45-32-80-60-80-98 0-24 18-42 41-42 15 0 28 8 39 22 11-14 24-22 39-22 23 0 41 18 41 42 0 38-35 66-80 98Z"
        fill="none" stroke="#ffffff" stroke-width="5" stroke-linejoin="round" transform="translate(0 60)"/>
  <path d="M255 90c-20-14-36-27-36-44 0-11 8-19 18-19 7 0 13 4 18 10 5-6 11-10 18-10 10 0 18 8 18 19 0 17-16 30-36 44Z"
        fill="#ffffff" opacity="0.55"/>
</svg>
