<svg xmlns="http://www.w3.org/2000/svg" viewBox="0 0 220 860" fill="none">
  <path d="M110 10 C 90 120, 130 220, 100 320 C 75 420, 130 520, 105 620 C 85 710, 120 790, 105 850"
        stroke="#C8A75E" stroke-width="2.5" stroke-linecap="round" opacity="0.5"/>

  <!-- reusable rose (layered petals + gold center) -->
  <defs>
    <g id="rose-navy">
      <ellipse cx="0" cy="-24" rx="17" ry="21" fill="#0D1B3D"/>
      <ellipse cx="20" cy="-11" rx="17" ry="21" fill="#16265A" transform="rotate(72 20 -11)"/>
      <ellipse cx="12" cy="17" rx="17" ry="21" fill="#0D1B3D" transform="rotate(144 12 17)"/>
      <ellipse cx="-12" cy="17" rx="17" ry="21" fill="#16265A" transform="rotate(216 -12 17)"/>
      <ellipse cx="-20" cy="-11" rx="17" ry="21" fill="#0D1B3D" transform="rotate(288 -20 -11)"/>
      <ellipse cx="0" cy="-11" rx="9" ry="11" fill="#1B2C5F"/>
      <circle r="6.5" fill="#D4AF37"/>
      <circle r="2.6" fill="#F7E6B1"/>
    </g>
    <g id="rose-white">
      <ellipse cx="0" cy="-22" rx="16" ry="19" fill="#F7F3EE"/>
      <ellipse cx="18" cy="-10" rx="16" ry="19" fill="#FFFFFF" transform="rotate(72 18 -10)"/>
      <ellipse cx="11" cy="16" rx="16" ry="19" fill="#F2ECE1" transform="rotate(144 11 16)"/>
      <ellipse cx="-11" cy="16" rx="16" ry="19" fill="#FFFFFF" transform="rotate(216 -11 16)"/>
      <ellipse cx="-18" cy="-10" rx="16" ry="19" fill="#F2ECE1" transform="rotate(288 -18 -10)"/>
      <ellipse cx="0" cy="-10" rx="8.5" ry="10" fill="#FBF8F3"/>
      <circle r="6" fill="#D4AF37"/>
      <circle r="2.4" fill="#F7E6B1"/>
    </g>
    <g id="leaf-pair">
      <ellipse cx="-15" cy="4" rx="17" ry="7.5" fill="#C8A75E" transform="rotate(-24 -15 4)"/>
      <ellipse cx="14" cy="9" rx="17" ry="7.5" fill="#D4AF37" transform="rotate(26 14 9)"/>
    </g>
  </defs>

  <use href="#rose-navy" transform="translate(112,52) scale(1.15)"/>
  <use href="#leaf-pair" transform="translate(150,86) rotate(20) scale(0.9)"/>
  <use href="#rose-white" transform="translate(70,118) scale(0.95)"/>

  <use href="#rose-white" transform="translate(128,196) scale(1.05)"/>
  <use href="#leaf-pair" transform="translate(78,168) rotate(-16) scale(0.85)"/>
  <use href="#rose-navy" transform="translate(66,246) scale(0.85)"/>

  <use href="#rose-navy" transform="translate(118,320) scale(1.1)"/>
  <use href="#leaf-pair" transform="translate(158,352) rotate(24) scale(0.9)"/>
  <use href="#rose-white" transform="translate(72,368) scale(1)"/>

  <use href="#rose-white" transform="translate(126,444) scale(0.95)"/>
  <use href="#leaf-pair" transform="translate(76,420) rotate(-18) scale(0.85)"/>
  <use href="#rose-navy" transform="translate(64,494) scale(0.9)"/>

  <use href="#rose-navy" transform="translate(116,566) scale(1.05)"/>
  <use href="#leaf-pair" transform="translate(154,600) rotate(18) scale(0.9)"/>
  <use href="#rose-white" transform="translate(70,616) scale(0.95)"/>

  <use href="#rose-white" transform="translate(124,690) scale(1)"/>
  <use href="#leaf-pair" transform="translate(74,664) rotate(-20) scale(0.85)"/>
  <use href="#rose-navy" transform="translate(64,738) scale(0.85)"/>

  <use href="#rose-navy" transform="translate(112,800) scale(1.1)"/>
  <use href="#leaf-pair" transform="translate(150,828) rotate(16) scale(0.85)"/>
  <use href="#rose-white" transform="translate(72,834) scale(0.9)"/>

  <circle cx="150" cy="150" r="3" fill="#D4AF37"/>
  <circle cx="48" cy="290" r="2.4" fill="#C8A75E"/>
  <circle cx="152" cy="410" r="3" fill="#D4AF37"/>
  <circle cx="46" cy="540" r="2.6" fill="#C8A75E"/>
  <circle cx="150" cy="660" r="2.6" fill="#D4AF37"/>
  <circle cx="48" cy="760" r="2.2" fill="#C8A75E"/>
</svg>
